<svg xmlns="http://www.w3.org/2000/svg" xmlns:inkscape="https://www.inkscape.org/namespaces/inkscape" xmlns:svg="http://www.w3.org/2000/svg" id="svg3060" width="400" height="300" version="1.1" inkscape:version="0.48.1 r9760"><metadata id="metadata3065"/><g id="layer1" transform="translate(0,-752.36218)" inkscape:groupmode="layer" inkscape:label="Layer 1"><path id="path3068" fill="none" stroke="#000" stroke-linecap="butt" stroke-linejoin="miter" stroke-opacity="1" stroke-width="1" d="M 19.907407,219.44444 54.62963,182.87037 96.759259,211.11111" transform="translate(0,752.36218)" inkscape:connector-curvature="0"/><path id="path3070" fill="none" stroke="#000" stroke-linecap="butt" stroke-linejoin="miter" stroke-opacity="1" stroke-width="1" d="M 54.62963,182.87037 53.703704,127.77778" transform="translate(0,752.36218)" inkscape:connector-curvature="0"/><path id="path3072" fill="none" stroke="#000" d="m 312.03703,137.5 a 41.898148,26.851852 0 1 1 -83.79629,0 41.898148,26.851852 0 1 1 83.79629,0 z" transform="matrix(1.3979832,0,0,1.4972804,-117.9274,672.26168)"/><path id="path3074" fill="none" stroke="#000" stroke-linecap="butt" stroke-linejoin="miter" stroke-opacity="1" stroke-width="1.447" d="M 256.16254,875.36501 267.81241,799.8078 z" inkscape:connector-curvature="0"/><path id="path3076" fill="none" stroke="#000" stroke-linecap="butt" stroke-linejoin="miter" stroke-opacity="1" stroke-width="1.447" d="m 289.17047,876.75137 0,0 0,0 0,0 -33.00793,-1.38636 -16.18036,30.50015" inkscape:connector-curvature="0"/><path id="path3084" fill="#000" stroke="none" d="m 270.55557,887.54736 a 2.5,2.5 0 1 1 -5,0 2.5,2.5 0 1 1 5,0 z" transform="matrix(1.3979832,0,0,1.4972804,-117.9274,-454.23549)"/><path id="path3086" fill="#000" stroke="none" d="m 292.77777,913.01031 a 2.5,2.5 0 1 1 -5,0 2.5,2.5 0 1 1 5,0 z" transform="matrix(1.3979832,0,0,1.4972804,-117.9274,-454.23549)"/><path id="path3088" fill="none" stroke="#000" stroke-linecap="butt" stroke-linejoin="miter" stroke-opacity="1" stroke-width="1.447" d="m 258.75139,874.67182 29.12466,38.81838 z" inkscape:connector-curvature="0"/><text id="text3090" x="56.944" y="933.381" fill="#000" fill-opacity="1" stroke="none" font-family="Sans" font-size="40" font-style="normal" font-weight="normal" letter-spacing="0" word-spacing="0" xml:space="preserve" style="line-height:125%"><tspan id="tspan3092" x="56.944" y="933.381">N</tspan></text><text id="text3094" x="26.852" y="235.185" fill="#000" fill-opacity="1" stroke="none" font-family="Sans" font-size="40" font-style="normal" font-weight="normal" letter-spacing="0" transform="translate(0,752.36218)" word-spacing="0" xml:space="preserve" style="line-height:125%"><tspan id="tspan3096" x="26.852" y="235.185" font-size="20">n<tspan id="tspan3102" baseline-shift="sub" font-size="65%">x</tspan></tspan></text><text id="text3104" x="102.315" y="217.593" fill="#000" fill-opacity="1" stroke="none" font-family="Sans" font-size="40" font-style="normal" font-weight="normal" letter-spacing="0" transform="translate(0,752.36218)" word-spacing="0" xml:space="preserve" style="line-height:125%"><tspan id="tspan3106" x="102.315" y="217.593" font-size="20">n<tspan id="tspan3108" baseline-shift="sub" font-size="65%">y</tspan></tspan></text><text id="text3110" x="42.13" y="118.519" fill="#000" fill-opacity="1" stroke="none" font-family="Sans" font-size="40" font-style="normal" font-weight="normal" letter-spacing="0" transform="translate(0,752.36218)" word-spacing="0" xml:space="preserve" style="line-height:125%"><tspan id="tspan3112" x="42.13" y="118.519" font-size="20">n<tspan id="tspan3114" baseline-shift="sub" font-size="65%">z</tspan></tspan></text><path id="path3116" fill="none" stroke="#000" stroke-linecap="butt" stroke-linejoin="miter" stroke-opacity="1" stroke-width="1" d="M 43.518519,105.55556 48.148148,100 l 4.166667,4.62963" transform="translate(0,752.36218)" inkscape:connector-curvature="0"/><path id="path3120" fill="none" stroke="#000" stroke-linecap="butt" stroke-linejoin="miter" stroke-opacity="1" stroke-width="1" d="m 105.55556,203.24074 5.09259,-5.09259 4.62963,4.62963" transform="translate(0,752.36218)" inkscape:connector-curvature="0"/><path id="path3122" fill="none" stroke="#000" stroke-linecap="butt" stroke-linejoin="miter" stroke-opacity="1" stroke-width="1" d="m 28.703704,219.90741 6.018518,-5.0926 5.092593,4.62963" transform="translate(0,752.36218)" inkscape:connector-curvature="0"/><text id="text3124" x="167.13" y="78.241" fill="#000" fill-opacity="1" stroke="none" font-family="Sans" font-size="40" font-style="normal" font-weight="normal" letter-spacing="0" transform="translate(0,752.36218)" word-spacing="0" xml:space="preserve" style="line-height:125%"><tspan id="tspan3126" x="167.13" y="78.241">B</tspan></text><text id="text3128" x="237.963" y="871.344" fill="#000" fill-opacity="1" stroke="none" font-family="Sans" font-size="40" font-style="normal" font-weight="normal" letter-spacing="0" word-spacing="0" xml:space="preserve" style="line-height:125%"><tspan id="tspan3130" x="237.963" y="871.344" font-size="20">O</tspan></text><text id="text3132" x="300" y="170.37" fill="#000" fill-opacity="1" stroke="none" font-family="Sans" font-size="40" font-style="normal" font-weight="normal" letter-spacing="0" transform="translate(0,752.36218)" word-spacing="0" xml:space="preserve" style="line-height:125%"><tspan id="tspan3134" x="300" y="170.37" font-size="20">P</tspan></text><text id="text3136" x="275" y="45.37" fill="#000" fill-opacity="1" stroke="none" font-family="Sans" font-size="40" font-style="normal" font-weight="normal" letter-spacing="0" transform="translate(0,752.36218)" word-spacing="0" xml:space="preserve" style="line-height:125%"><tspan id="tspan3138" x="275" y="45.37" font-size="20">b<tspan id="tspan3140" baseline-shift="sub" font-size="65%">z</tspan></tspan></text><text id="text3142" x="290.278" y="881.066" fill="#000" fill-opacity="1" stroke="none" font-family="Sans" font-size="40" font-style="normal" font-weight="normal" letter-spacing="0" word-spacing="0" xml:space="preserve" style="line-height:125%"><tspan id="tspan3144" x="290.278" y="881.066" font-size="20">b<tspan id="tspan3146" baseline-shift="sub" font-size="65.001%">y</tspan></tspan></text><text id="text3148" x="217.593" y="903.288" fill="#000" fill-opacity="1" stroke="none" font-family="Sans" font-size="40" font-style="normal" font-weight="normal" letter-spacing="0" word-spacing="0" xml:space="preserve" style="line-height:125%"><tspan id="tspan3150" x="217.593" y="903.288" font-size="20">b<tspan id="tspan3152" baseline-shift="sub" font-size="65.001%">x</tspan></tspan></text><path id="path3176" fill="none" stroke="#000" stroke-linecap="butt" stroke-linejoin="miter" stroke-opacity="1" stroke-width="1" d="m 220.37037,133.33333 4.16667,-3.7037 2.77777,3.24074" transform="translate(0,752.36218)" inkscape:connector-curvature="0"/><path id="path3178" fill="none" stroke="#000" stroke-linecap="butt" stroke-linejoin="miter" stroke-opacity="1" stroke-width="1" d="m 293.05556,111.57407 5.09259,-2.77777 3.24074,2.77777" transform="translate(0,752.36218)" inkscape:connector-curvature="0"/><path id="path3180" fill="none" stroke="#000" stroke-linecap="butt" stroke-linejoin="miter" stroke-opacity="1" stroke-width="1" d="m 277.31481,28.240741 3.70371,-3.703704 2.77778,3.240741" transform="translate(0,752.36218)" inkscape:connector-curvature="0"/><path id="path3182" fill="none" stroke="#000" stroke-linecap="butt" stroke-linejoin="miter" stroke-opacity="1" stroke-width="1" d="m 270.83333,145.37037 c 0,2.77778 0,5.55556 0,8.33333 0,0.61729 0.16958,1.25832 0,1.85186 -0.15285,0.535 -0.70674,0.87746 -0.92592,1.38888 -0.25065,0.58484 -0.26176,1.24823 -0.46297,1.85186 -0.21824,0.65472 -0.75854,1.18231 -0.92592,1.85185 -0.0749,0.29942 0.13803,0.64987 0,0.92592 -0.34507,0.69015 -1.00607,1.18192 -1.38889,1.85186 -0.48424,0.84741 -0.48944,1.9048 -0.92593,2.77777 -0.0976,0.19521 -0.41003,0.25124 -0.46296,0.46297 -0.11228,0.44914 0.0761,0.93222 0,1.38889 -0.16045,0.96273 -0.73451,1.82072 -0.92593,2.77777 -0.0605,0.30265 0,0.61729 0,0.92593 -0.15432,0.30864 -0.35384,0.59856 -0.46296,0.92593 -0.0976,0.2928 0.0976,0.63312 0,0.92592 -0.10912,0.32737 -0.39529,0.58756 -0.46296,0.92593 -0.0908,0.45397 0,0.92592 0,1.38889 0,0.7716 0,1.54321 0,2.31481 0,1.23457 0,2.46914 0,3.7037 0,0.46297 0,0.92593 0,1.38889 0,0.15432 -0.069,0.32494 0,0.46297 0.0976,0.1952 0.3419,0.28137 0.46296,0.46296 1.0479,1.57185 -0.20397,0.86635 1.38889,2.77778 0.41915,0.50297 1.02571,0.84412 1.38889,1.38889 0.2707,0.40604 0.30864,0.92592 0.46296,1.38888 0.15432,0.46297 0.34461,0.91546 0.46297,1.38889 0.0374,0.14972 0,0.30865 0,0.46297" transform="translate(0,752.36218)" inkscape:connector-curvature="0"/><path id="path3188" fill="none" stroke="#000" stroke-linecap="butt" stroke-linejoin="miter" stroke-opacity="1" stroke-width="1" d="m 270.23919,144.01093 -1.96419,3.10996 4.5831,-0.32736 z" transform="translate(0,752.36218)" inkscape:connector-curvature="0"/><text id="text3190" x="255.093" y="964.399" fill="#000" fill-opacity="1" stroke="none" font-family="Sans" font-size="40" font-style="normal" font-weight="normal" letter-spacing="0" word-spacing="0" xml:space="preserve" style="line-height:125%"><tspan id="tspan3192" x="255.093" y="964.399" font-size="20">r<tspan id="tspan3196" baseline-shift="super" font-size="65.001%">OP</tspan></tspan></text><path id="path3198" fill="none" stroke="#000" stroke-linecap="butt" stroke-linejoin="miter" stroke-opacity="1" stroke-width="1" d="m 255.09259,214.35185 7.40741,0 z" transform="translate(0,752.36218)" inkscape:connector-curvature="0"/></g></svg>